<svg width="49" height="49" viewBox="0 0 49 49" fill="none" xmlns="http://www.w3.org/2000/svg">
<path d="M33.853 7.75452V4.63452C33.853 3.81452 33.173 3.13452 32.353 3.13452C31.533 3.13452 30.853 3.81452 30.853 4.63452V7.63452H17.853V4.63452C17.853 3.81452 17.173 3.13452 16.353 3.13452C15.533 3.13452 14.853 3.81452 14.853 4.63452V7.75452C9.453 8.25452 6.833 11.4745 6.433 16.2545C6.393 16.8345 6.873 17.3145 7.433 17.3145H41.273C41.853 17.3145 42.333 16.8145 42.273 16.2545C41.873 11.4745 39.253 8.25452 33.853 7.75452Z" fill="#292D32"/>
<path d="M40.3525 20.3145H8.35254C7.25254 20.3145 6.35254 21.2145 6.35254 22.3145V34.6345C6.35254 40.6345 9.35254 44.6345 16.3525 44.6345H32.3525C39.3525 44.6345 42.3525 40.6345 42.3525 34.6345V22.3145C42.3525 21.2145 41.4525 20.3145 40.3525 20.3145ZM18.7725 37.0545C18.6725 37.1345 18.5725 37.2345 18.4725 37.2945C18.3525 37.3745 18.2325 37.4345 18.1125 37.4745C17.9925 37.5345 17.8725 37.5745 17.7525 37.5945C17.6125 37.6145 17.4925 37.6345 17.3525 37.6345C17.0925 37.6345 16.8325 37.5745 16.5925 37.4745C16.3325 37.3745 16.1325 37.2345 15.9325 37.0545C15.5725 36.6745 15.3525 36.1545 15.3525 35.6345C15.3525 35.1145 15.5725 34.5945 15.9325 34.2145C16.1325 34.0345 16.3325 33.8945 16.5925 33.7945C16.9525 33.6345 17.3525 33.5945 17.7525 33.6745C17.8725 33.6945 17.9925 33.7345 18.1125 33.7945C18.2325 33.8345 18.3525 33.8945 18.4725 33.9745C18.5725 34.0545 18.6725 34.1345 18.7725 34.2145C19.1325 34.5945 19.3525 35.1145 19.3525 35.6345C19.3525 36.1545 19.1325 36.6745 18.7725 37.0545ZM18.7725 30.0545C18.3925 30.4145 17.8725 30.6345 17.3525 30.6345C16.8325 30.6345 16.3125 30.4145 15.9325 30.0545C15.5725 29.6745 15.3525 29.1545 15.3525 28.6345C15.3525 28.1145 15.5725 27.5945 15.9325 27.2145C16.4925 26.6545 17.3725 26.4745 18.1125 26.7945C18.3725 26.8945 18.5925 27.0345 18.7725 27.2145C19.1325 27.5945 19.3525 28.1145 19.3525 28.6345C19.3525 29.1545 19.1325 29.6745 18.7725 30.0545ZM25.7725 37.0545C25.3925 37.4145 24.8725 37.6345 24.3525 37.6345C23.8325 37.6345 23.3125 37.4145 22.9325 37.0545C22.5725 36.6745 22.3525 36.1545 22.3525 35.6345C22.3525 35.1145 22.5725 34.5945 22.9325 34.2145C23.6725 33.4745 25.0325 33.4745 25.7725 34.2145C26.1325 34.5945 26.3525 35.1145 26.3525 35.6345C26.3525 36.1545 26.1325 36.6745 25.7725 37.0545ZM25.7725 30.0545C25.6725 30.1345 25.5725 30.2145 25.4725 30.2945C25.3525 30.3745 25.2325 30.4345 25.1125 30.4745C24.9925 30.5345 24.8725 30.5745 24.7525 30.5945C24.6125 30.6145 24.4925 30.6345 24.3525 30.6345C23.8325 30.6345 23.3125 30.4145 22.9325 30.0545C22.5725 29.6745 22.3525 29.1545 22.3525 28.6345C22.3525 28.1145 22.5725 27.5945 22.9325 27.2145C23.1125 27.0345 23.3325 26.8945 23.5925 26.7945C24.3325 26.4745 25.2125 26.6545 25.7725 27.2145C26.1325 27.5945 26.3525 28.1145 26.3525 28.6345C26.3525 29.1545 26.1325 29.6745 25.7725 30.0545ZM32.7725 37.0545C32.3925 37.4145 31.8725 37.6345 31.3525 37.6345C30.8325 37.6345 30.3125 37.4145 29.9325 37.0545C29.5725 36.6745 29.3525 36.1545 29.3525 35.6345C29.3525 35.1145 29.5725 34.5945 29.9325 34.2145C30.6725 33.4745 32.0325 33.4745 32.7725 34.2145C33.1325 34.5945 33.3525 35.1145 33.3525 35.6345C33.3525 36.1545 33.1325 36.6745 32.7725 37.0545ZM32.7725 30.0545C32.6725 30.1345 32.5725 30.2145 32.4725 30.2945C32.3525 30.3745 32.2325 30.4345 32.1125 30.4745C31.9925 30.5345 31.8725 30.5745 31.7525 30.5945C31.6125 30.6145 31.4725 30.6345 31.3525 30.6345C30.8325 30.6345 30.3125 30.4145 29.9325 30.0545C29.5725 29.6745 29.3525 29.1545 29.3525 28.6345C29.3525 28.1145 29.5725 27.5945 29.9325 27.2145C30.1325 27.0345 30.3325 26.8945 30.5925 26.7945C30.9525 26.6345 31.3525 26.5945 31.7525 26.6745C31.8725 26.6945 31.9925 26.7345 32.1125 26.7945C32.2325 26.8345 32.3525 26.8945 32.4725 26.9745C32.5725 27.0545 32.6725 27.1345 32.7725 27.2145C33.1325 27.5945 33.3525 28.1145 33.3525 28.6345C33.3525 29.1545 33.1325 29.6745 32.7725 30.0545Z" fill="#292D32"/>
</svg>
