<svg width="16" height="17" viewBox="0 0 16 17" fill="none" xmlns="http://www.w3.org/2000/svg">
<path d="M11.1667 2.87331V1.83331C11.1667 1.55998 10.94 1.33331 10.6667 1.33331C10.3933 1.33331 10.1667 1.55998 10.1667 1.83331V2.83331H5.83332V1.83331C5.83332 1.55998 5.60666 1.33331 5.33332 1.33331C5.05999 1.33331 4.83332 1.55998 4.83332 1.83331V2.87331C3.03332 3.03998 2.15999 4.11331 2.02666 5.70665C2.01332 5.89998 2.17332 6.05998 2.35999 6.05998H13.64C13.8333 6.05998 13.9933 5.89331 13.9733 5.70665C13.84 4.11331 12.9667 3.03998 11.1667 2.87331Z" fill="#8D9397"/>
<path d="M13.3333 7.06H2.66667C2.3 7.06 2 7.36 2 7.72666V11.8333C2 13.8333 3 15.1667 5.33333 15.1667H10.6667C13 15.1667 14 13.8333 14 11.8333V7.72666C14 7.36 13.7 7.06 13.3333 7.06ZM6.14 12.64C6.10667 12.6667 6.07333 12.7 6.04 12.72C6 12.7467 5.96 12.7667 5.92 12.78C5.88 12.8 5.84 12.8133 5.8 12.82C5.75333 12.8267 5.71333 12.8333 5.66667 12.8333C5.58 12.8333 5.49333 12.8133 5.41333 12.78C5.32667 12.7467 5.26 12.7 5.19333 12.64C5.07333 12.5133 5 12.34 5 12.1667C5 11.9933 5.07333 11.82 5.19333 11.6933C5.26 11.6333 5.32667 11.5867 5.41333 11.5533C5.53333 11.5 5.66667 11.4867 5.8 11.5133C5.84 11.52 5.88 11.5333 5.92 11.5533C5.96 11.5667 6 11.5867 6.04 11.6133C6.07333 11.64 6.10667 11.6667 6.14 11.6933C6.26 11.82 6.33333 11.9933 6.33333 12.1667C6.33333 12.34 6.26 12.5133 6.14 12.64ZM6.14 10.3067C6.01333 10.4267 5.84 10.5 5.66667 10.5C5.49333 10.5 5.32 10.4267 5.19333 10.3067C5.07333 10.18 5 10.0067 5 9.83333C5 9.66 5.07333 9.48666 5.19333 9.36C5.38 9.17333 5.67333 9.11333 5.92 9.22C6.00667 9.25333 6.08 9.3 6.14 9.36C6.26 9.48666 6.33333 9.66 6.33333 9.83333C6.33333 10.0067 6.26 10.18 6.14 10.3067ZM8.47333 12.64C8.34667 12.76 8.17333 12.8333 8 12.8333C7.82667 12.8333 7.65333 12.76 7.52667 12.64C7.40667 12.5133 7.33333 12.34 7.33333 12.1667C7.33333 11.9933 7.40667 11.82 7.52667 11.6933C7.77333 11.4467 8.22667 11.4467 8.47333 11.6933C8.59333 11.82 8.66667 11.9933 8.66667 12.1667C8.66667 12.34 8.59333 12.5133 8.47333 12.64ZM8.47333 10.3067C8.44 10.3333 8.40667 10.36 8.37333 10.3867C8.33333 10.4133 8.29333 10.4333 8.25333 10.4467C8.21333 10.4667 8.17333 10.48 8.13333 10.4867C8.08667 10.4933 8.04667 10.5 8 10.5C7.82667 10.5 7.65333 10.4267 7.52667 10.3067C7.40667 10.18 7.33333 10.0067 7.33333 9.83333C7.33333 9.66 7.40667 9.48666 7.52667 9.36C7.58667 9.3 7.66 9.25333 7.74667 9.22C7.99333 9.11333 8.28667 9.17333 8.47333 9.36C8.59333 9.48666 8.66667 9.66 8.66667 9.83333C8.66667 10.0067 8.59333 10.18 8.47333 10.3067ZM10.8067 12.64C10.68 12.76 10.5067 12.8333 10.3333 12.8333C10.16 12.8333 9.98667 12.76 9.86 12.64C9.74 12.5133 9.66667 12.34 9.66667 12.1667C9.66667 11.9933 9.74 11.82 9.86 11.6933C10.1067 11.4467 10.56 11.4467 10.8067 11.6933C10.9267 11.82 11 11.9933 11 12.1667C11 12.34 10.9267 12.5133 10.8067 12.64ZM10.8067 10.3067C10.7733 10.3333 10.74 10.36 10.7067 10.3867C10.6667 10.4133 10.6267 10.4333 10.5867 10.4467C10.5467 10.4667 10.5067 10.48 10.4667 10.4867C10.42 10.4933 10.3733 10.5 10.3333 10.5C10.16 10.5 9.98667 10.4267 9.86 10.3067C9.74 10.18 9.66667 10.0067 9.66667 9.83333C9.66667 9.66 9.74 9.48666 9.86 9.36C9.92667 9.3 9.99333 9.25333 10.08 9.22C10.2 9.16666 10.3333 9.15333 10.4667 9.18C10.5067 9.18666 10.5467 9.2 10.5867 9.22C10.6267 9.23333 10.6667 9.25333 10.7067 9.28C10.74 9.30666 10.7733 9.33333 10.8067 9.36C10.9267 9.48666 11 9.66 11 9.83333C11 10.0067 10.9267 10.18 10.8067 10.3067Z" fill="#8D9397"/>
</svg>
