<svg width="17" height="17" viewBox="0 0 17 17" fill="none" xmlns="http://www.w3.org/2000/svg">
<path d="M11.8333 2.87331V1.83331C11.8333 1.55998 11.6066 1.33331 11.3333 1.33331C11.0599 1.33331 10.8333 1.55998 10.8333 1.83331V2.83331H6.49995V1.83331C6.49995 1.55998 6.27328 1.33331 5.99995 1.33331C5.72662 1.33331 5.49995 1.55998 5.49995 1.83331V2.87331C3.69995 3.03998 2.82662 4.11331 2.69328 5.70665C2.67995 5.89998 2.83995 6.05998 3.02662 6.05998H14.3066C14.4999 6.05998 14.6599 5.89331 14.6399 5.70665C14.5066 4.11331 13.6333 3.03998 11.8333 2.87331Z" fill="#4D73FF"/>
<path d="M14 7.06H3.33329C2.96663 7.06 2.66663 7.36 2.66663 7.72666V11.8333C2.66663 13.8333 3.66663 15.1667 5.99996 15.1667H11.3333C13.6666 15.1667 14.6666 13.8333 14.6666 11.8333V7.72666C14.6666 7.36 14.3666 7.06 14 7.06ZM6.80663 12.64C6.77329 12.6667 6.73996 12.7 6.70663 12.72C6.66663 12.7467 6.62663 12.7667 6.58663 12.78C6.54663 12.8 6.50663 12.8133 6.46663 12.82C6.41996 12.8267 6.37996 12.8333 6.33329 12.8333C6.24663 12.8333 6.15996 12.8133 6.07996 12.78C5.99329 12.7467 5.92663 12.7 5.85996 12.64C5.73996 12.5133 5.66663 12.34 5.66663 12.1667C5.66663 11.9933 5.73996 11.82 5.85996 11.6933C5.92663 11.6333 5.99329 11.5867 6.07996 11.5533C6.19996 11.5 6.33329 11.4867 6.46663 11.5133C6.50663 11.52 6.54663 11.5333 6.58663 11.5533C6.62663 11.5667 6.66663 11.5867 6.70663 11.6133C6.73996 11.64 6.77329 11.6667 6.80663 11.6933C6.92663 11.82 6.99996 11.9933 6.99996 12.1667C6.99996 12.34 6.92663 12.5133 6.80663 12.64ZM6.80663 10.3067C6.67996 10.4267 6.50663 10.5 6.33329 10.5C6.15996 10.5 5.98663 10.4267 5.85996 10.3067C5.73996 10.18 5.66663 10.0067 5.66663 9.83333C5.66663 9.66 5.73996 9.48666 5.85996 9.36C6.04663 9.17333 6.33996 9.11333 6.58663 9.22C6.67329 9.25333 6.74663 9.3 6.80663 9.36C6.92663 9.48666 6.99996 9.66 6.99996 9.83333C6.99996 10.0067 6.92663 10.18 6.80663 10.3067ZM9.13996 12.64C9.01329 12.76 8.83996 12.8333 8.66663 12.8333C8.49329 12.8333 8.31996 12.76 8.19329 12.64C8.07329 12.5133 7.99996 12.34 7.99996 12.1667C7.99996 11.9933 8.07329 11.82 8.19329 11.6933C8.43996 11.4467 8.89329 11.4467 9.13996 11.6933C9.25996 11.82 9.33329 11.9933 9.33329 12.1667C9.33329 12.34 9.25996 12.5133 9.13996 12.64ZM9.13996 10.3067C9.10663 10.3333 9.07329 10.36 9.03996 10.3867C8.99996 10.4133 8.95996 10.4333 8.91996 10.4467C8.87996 10.4667 8.83996 10.48 8.79996 10.4867C8.75329 10.4933 8.71329 10.5 8.66663 10.5C8.49329 10.5 8.31996 10.4267 8.19329 10.3067C8.07329 10.18 7.99996 10.0067 7.99996 9.83333C7.99996 9.66 8.07329 9.48666 8.19329 9.36C8.25329 9.3 8.32663 9.25333 8.41329 9.22C8.65996 9.11333 8.95329 9.17333 9.13996 9.36C9.25996 9.48666 9.33329 9.66 9.33329 9.83333C9.33329 10.0067 9.25996 10.18 9.13996 10.3067ZM11.4733 12.64C11.3466 12.76 11.1733 12.8333 11 12.8333C10.8266 12.8333 10.6533 12.76 10.5266 12.64C10.4066 12.5133 10.3333 12.34 10.3333 12.1667C10.3333 11.9933 10.4066 11.82 10.5266 11.6933C10.7733 11.4467 11.2266 11.4467 11.4733 11.6933C11.5933 11.82 11.6666 11.9933 11.6666 12.1667C11.6666 12.34 11.5933 12.5133 11.4733 12.64ZM11.4733 10.3067C11.44 10.3333 11.4066 10.36 11.3733 10.3867C11.3333 10.4133 11.2933 10.4333 11.2533 10.4467C11.2133 10.4667 11.1733 10.48 11.1333 10.4867C11.0866 10.4933 11.04 10.5 11 10.5C10.8266 10.5 10.6533 10.4267 10.5266 10.3067C10.4066 10.18 10.3333 10.0067 10.3333 9.83333C10.3333 9.66 10.4066 9.48666 10.5266 9.36C10.5933 9.3 10.66 9.25333 10.7466 9.22C10.8666 9.16666 11 9.15333 11.1333 9.18C11.1733 9.18666 11.2133 9.2 11.2533 9.22C11.2933 9.23333 11.3333 9.25333 11.3733 9.28C11.4066 9.30666 11.44 9.33333 11.4733 9.36C11.5933 9.48666 11.6666 9.66 11.6666 9.83333C11.6666 10.0067 11.5933 10.18 11.4733 10.3067Z" fill="#4D73FF"/>
</svg>
