<svg width="24" height="25" viewBox="0 0 24 25" fill="none" xmlns="http://www.w3.org/2000/svg">
<path fill-rule="evenodd" clip-rule="evenodd" d="M1.5 6.5C1.5 5.90326 1.73705 5.33097 2.15901 4.90901C2.58097 4.48705 3.15326 4.25 3.75 4.25H20.25C20.8467 4.25 21.419 4.48705 21.841 4.90901C22.2629 5.33097 22.5 5.90326 22.5 6.5V18.5C22.5 19.0967 22.2629 19.669 21.841 20.091C21.419 20.5129 20.8467 20.75 20.25 20.75H3.75C3.15326 20.75 2.58097 20.5129 2.15901 20.091C1.73705 19.669 1.5 19.0967 1.5 18.5V6.5ZM3 16.56V18.5C3 18.914 3.336 19.25 3.75 19.25H20.25C20.4489 19.25 20.6397 19.171 20.7803 19.0303C20.921 18.8897 21 18.6989 21 18.5V16.56L18.31 13.871C18.0287 13.5901 17.6475 13.4323 17.25 13.4323C16.8525 13.4323 16.4713 13.5901 16.19 13.871L15.31 14.75L16.28 15.72C16.3537 15.7887 16.4128 15.8715 16.4538 15.9635C16.4948 16.0555 16.5168 16.1548 16.5186 16.2555C16.5204 16.3562 16.5018 16.4562 16.4641 16.5496C16.4264 16.643 16.3703 16.7278 16.299 16.799C16.2278 16.8703 16.143 16.9264 16.0496 16.9641C15.9562 17.0018 15.8562 17.0204 15.7555 17.0186C15.6548 17.0168 15.5555 16.9948 15.4635 16.9538C15.3715 16.9128 15.2887 16.8537 15.22 16.78L10.06 11.621C9.77875 11.3401 9.3975 11.1823 9 11.1823C8.6025 11.1823 8.22125 11.3401 7.94 11.621L3 16.561V16.56ZM13.125 8.75C13.125 8.45163 13.2435 8.16548 13.4545 7.9545C13.6655 7.74353 13.9516 7.625 14.25 7.625C14.5484 7.625 14.8345 7.74353 15.0455 7.9545C15.2565 8.16548 15.375 8.45163 15.375 8.75C15.375 9.04837 15.2565 9.33452 15.0455 9.5455C14.8345 9.75647 14.5484 9.875 14.25 9.875C13.9516 9.875 13.6655 9.75647 13.4545 9.5455C13.2435 9.33452 13.125 9.04837 13.125 8.75Z" fill="#1C2730"/>
</svg>
