<svg width="16" height="16" viewBox="0 0 16 16" fill="none" xmlns="http://www.w3.org/2000/svg">
<path d="M1.72003 12.6734L1.7067 12.6867C1.5267 12.2934 1.41337 11.8467 1.3667 11.3534C1.41337 11.84 1.54003 12.28 1.72003 12.6734Z" fill="#1C2730"/>
<path d="M6 6.91998C6.87629 6.91998 7.58666 6.2096 7.58666 5.33331C7.58666 4.45702 6.87629 3.74664 6 3.74664C5.1237 3.74664 4.41333 4.45702 4.41333 5.33331C4.41333 6.2096 5.1237 6.91998 6 6.91998Z" fill="#1C2730"/>
<path d="M10.7934 1.33331H5.20671C2.78004 1.33331 1.33337 2.77998 1.33337 5.20665V10.7933C1.33337 11.52 1.46004 12.1533 1.70671 12.6866C2.28004 13.9533 3.50671 14.6666 5.20671 14.6666H10.7934C13.22 14.6666 14.6667 13.22 14.6667 10.7933V9.26665V5.20665C14.6667 2.77998 13.22 1.33331 10.7934 1.33331ZM13.58 8.33331C13.06 7.88665 12.22 7.88665 11.7 8.33331L8.92671 10.7133C8.40671 11.16 7.56671 11.16 7.04671 10.7133L6.82004 10.5266C6.34671 10.1133 5.59337 10.0733 5.06004 10.4333L2.56671 12.1066C2.42004 11.7333 2.33337 11.3 2.33337 10.7933V5.20665C2.33337 3.32665 3.32671 2.33331 5.20671 2.33331H10.7934C12.6734 2.33331 13.6667 3.32665 13.6667 5.20665V8.40665L13.58 8.33331Z" fill="#1C2730"/>
</svg>
