<svg width="129" height="129" viewBox="0 0 129 129" fill="none" xmlns="http://www.w3.org/2000/svg">
<circle cx="64.2197" cy="64.0601" r="64" fill="#EFF4FD"/>
<mask id="mask0_1016_441" style="mask-type:alpha" maskUnits="userSpaceOnUse" x="0" y="0" width="129" height="129">
<path d="M128.22 64.0601C128.22 99.4063 99.5659 128.06 64.2197 128.06C28.8735 128.06 0.219727 99.4063 0.219727 64.0601C0.219727 28.7138 28.8735 0.0600586 64.2197 0.0600586C99.5659 0.0600586 128.22 28.7138 128.22 64.0601Z" fill="#D9D9D9"/>
</mask>
<g mask="url(#mask0_1016_441)">
<path d="M68.8019 103.522C18.656 97.6999 -12.0357 81.3758 -21.1133 73.9416L-17.7651 26.1799C0.374809 33.5092 3.53369 51.6467 2.84563 59.7993C27.9769 55.8137 36.118 77.6721 37.0471 89.0995C46.2603 87.9479 47.2474 89.5931 53.2524 95.7626C58.0564 100.698 65.6204 102.992 68.8019 103.522Z" fill="white"/>
<path d="M65.9292 41.5421C115.724 49.8501 149.738 42.6747 160.521 38.0485L170.545 -8.76929C151.084 -6.7563 143.021 9.79452 141.422 17.8183C118.38 7.02174 104.498 25.7664 100.438 36.4883C91.9049 32.8276 90.5004 34.1347 83.0204 38.3976C77.0364 41.8079 69.1329 41.9149 65.9292 41.5421Z" fill="white"/>
<path d="M59.2559 29.0221C59.2559 26.2816 61.4774 24.0601 64.2179 24.0601Lnan nanL64.2179 24.0601C66.9583 24.0601 69.1799 26.2816 69.1799 29.0221V45.9868H59.2559V29.0221Z" fill="#2233A0"/>
<path d="M53.6885 42.9855C53.6885 39.8927 56.1957 37.3855 59.2885 37.3855H69.1544C72.2472 37.3855 74.7544 39.8927 74.7544 42.9855V45.9863H53.6885V42.9855Z" fill="#3851EE"/>
<path d="M22.2279 75.9786C24.7072 57.2876 40.6465 43.323 59.5013 43.323H68.9351C87.7899 43.323 103.729 57.2876 106.209 75.9786L114.306 137.019H14.1309L22.2279 75.9786Z" fill="#FFC93C"/>
<path d="M37.9697 59.146L44.2589 65.4352L37.9697 71.7244L31.6805 65.4352L37.9697 59.146Z" fill="#2B2025"/>
<path d="M64.2197 59.146L70.5089 65.4352L64.2197 71.7244L57.9305 65.4352L64.2197 59.146Z" fill="#2B2025"/>
<path d="M90.4697 59.146L96.7589 65.4352L90.4697 71.7244L84.1805 65.4352L90.4697 59.146Z" fill="#2B2025"/>
<path d="M37.9697 91.146L44.2589 97.4352L37.9697 103.724L31.6805 97.4352L37.9697 91.146Z" fill="#2B2025"/>
<path d="M64.2197 91.146L70.5089 97.4352L64.2197 103.724L57.9305 97.4352L64.2197 91.146Z" fill="#2B2025"/>
<path d="M90.4697 91.146L96.7589 97.4352L90.4697 103.724L84.1805 97.4352L90.4697 91.146Z" fill="#2B2025"/>
<path d="M21.1787 83.8945L21.931 78.2237L25.0086 75.146L31.2978 81.4352L25.0086 87.7244L21.1787 83.8945Z" fill="#2B2025"/>
<path d="M51.2568 75.146L57.5461 81.4352L51.2568 87.7244L44.9676 81.4352L51.2568 75.146Z" fill="#2B2025"/>
<path d="M77.5117 75.146L83.8009 81.4352L77.5117 87.7244L71.2225 81.4352L77.5117 75.146Z" fill="#2B2025"/>
<path d="M106.457 77.8537L107.296 84.1778L103.749 87.7244L97.46 81.4352L103.749 75.146L106.457 77.8537Z" fill="#2B2025"/>
<path d="M9.61035 112.556H118.826V133.753H9.61035V112.556Z" fill="#3851EE"/>
<path fill-rule="evenodd" clip-rule="evenodd" d="M103.359 120.829H23.6836V120.029H103.359V120.829Z" fill="white"/>
<path fill-rule="evenodd" clip-rule="evenodd" d="M38.3117 112.555V120.239H37.5117V112.555H38.3117Z" fill="white"/>
<path fill-rule="evenodd" clip-rule="evenodd" d="M57.5148 112.555V120.239H56.7148V112.555H57.5148Z" fill="white"/>
<path fill-rule="evenodd" clip-rule="evenodd" d="M49.5148 120.703L49.5148 128.157L48.7148 128.157L48.7148 120.703L49.5148 120.703Z" fill="white"/>
<path fill-rule="evenodd" clip-rule="evenodd" d="M68.7121 120.703L68.7121 128.157L67.9121 128.157L67.9121 120.703L68.7121 120.703Z" fill="white"/>
<path fill-rule="evenodd" clip-rule="evenodd" d="M87.9104 120.703L87.9104 128.157L87.1104 128.157L87.1104 120.703L87.9104 120.703Z" fill="white"/>
<path fill-rule="evenodd" clip-rule="evenodd" d="M76.7121 112.555V120.239H75.9121V112.555H76.7121Z" fill="white"/>
<path fill-rule="evenodd" clip-rule="evenodd" d="M95.9104 112.555V120.239H95.1104V112.555H95.9104Z" fill="white"/>
</g>
</svg>
