<svg width="16" height="17" viewBox="0 0 16 17" fill="none" xmlns="http://www.w3.org/2000/svg">
<path d="M13.36 5.04667L9.51999 2.36C8.47333 1.62667 6.86666 1.66667 5.85999 2.44667L2.51999 5.05333C1.85333 5.57333 1.32666 6.64 1.32666 7.48V12.08C1.32666 13.78 2.70666 15.1667 4.40666 15.1667H11.5933C13.2933 15.1667 14.6733 13.7867 14.6733 12.0867V7.56667C14.6733 6.66667 14.0933 5.56 13.36 5.04667ZM8.49999 12.5C8.49999 12.7733 8.27333 13 7.99999 13C7.72666 13 7.49999 12.7733 7.49999 12.5V10.5C7.49999 10.2267 7.72666 10 7.99999 10C8.27333 10 8.49999 10.2267 8.49999 10.5V12.5Z" fill="#4D73FF"/>
</svg>
