<svg width="16" height="17" viewBox="0 0 16 17" fill="none" xmlns="http://www.w3.org/2000/svg">
<path d="M13.7467 6.13334C13.0467 3.05334 10.36 1.66667 8 1.66667C8 1.66667 8 1.66667 7.99334 1.66667C5.64 1.66667 2.94667 3.04667 2.24667 6.12667C1.46667 9.56667 3.57334 12.48 5.48 14.3133C6.18667 14.9933 7.09334 15.3333 8 15.3333C8.90667 15.3333 9.81334 14.9933 10.5133 14.3133C12.42 12.48 14.5267 9.57334 13.7467 6.13334ZM8 9.47334C6.84 9.47334 5.9 8.53334 5.9 7.37334C5.9 6.21334 6.84 5.27334 8 5.27334C9.16 5.27334 10.1 6.21334 10.1 7.37334C10.1 8.53334 9.16 9.47334 8 9.47334Z" fill="#8D9397"/>
</svg>
