<svg width="16" height="17" viewBox="0 0 16 17" fill="none" xmlns="http://www.w3.org/2000/svg">
<path d="M1 6.28V12C1 12.5304 1.21071 13.0391 1.58579 13.4142C1.96086 13.7893 2.46957 14 3 14H13C13.5304 14 14.0391 13.7893 14.4142 13.4142C14.7893 13.0391 15 12.5304 15 12V6.28L9.048 9.942C8.73283 10.1359 8.37004 10.2386 8 10.2386C7.62996 10.2386 7.26717 10.1359 6.952 9.942L1 6.28Z" fill="#1C2730"/>
<path d="M15 5.10533V5C15 4.46957 14.7893 3.96086 14.4142 3.58579C14.0391 3.21071 13.5304 3 13 3H3C2.46957 3 1.96086 3.21071 1.58579 3.58579C1.21071 3.96086 1 4.46957 1 5V5.10533L7.476 9.09067C7.63359 9.18762 7.81498 9.23895 8 9.23895C8.18502 9.23895 8.36641 9.18762 8.524 9.09067L15 5.10533Z" fill="#1C2730"/>
</svg>
