<svg width="48" height="48" viewBox="0 0 48 48" fill="none" xmlns="http://www.w3.org/2000/svg">
<circle cx="24" cy="24" r="24" fill="white"/>
<path d="M25.75 24C25.75 24.3461 25.6474 24.6845 25.4551 24.9722C25.2628 25.26 24.9895 25.4843 24.6697 25.6168C24.3499 25.7492 23.9981 25.7839 23.6586 25.7164C23.3191 25.6489 23.0073 25.4822 22.7626 25.2374C22.5178 24.9927 22.3512 24.6809 22.2836 24.3414C22.2161 24.0019 22.2508 23.6501 22.3832 23.3303C22.5157 23.0105 22.74 22.7372 23.0278 22.5449C23.3155 22.3526 23.6539 22.25 24 22.25C24.4641 22.25 24.9092 22.4344 25.2374 22.7626C25.5656 23.0908 25.75 23.5359 25.75 24ZM19 22.25C18.6539 22.25 18.3155 22.3526 18.0278 22.5449C17.74 22.7372 17.5157 23.0105 17.3832 23.3303C17.2508 23.6501 17.2161 24.0019 17.2836 24.3414C17.3512 24.6809 17.5178 24.9927 17.7626 25.2374C18.0073 25.4822 18.3191 25.6489 18.6586 25.7164C18.9981 25.7839 19.3499 25.7492 19.6697 25.6168C19.9895 25.4843 20.2628 25.26 20.4551 24.9722C20.6474 24.6845 20.75 24.3461 20.75 24C20.75 23.5359 20.5656 23.0908 20.2374 22.7626C19.9092 22.4344 19.4641 22.25 19 22.25ZM29 22.25C28.6539 22.25 28.3155 22.3526 28.0278 22.5449C27.74 22.7372 27.5157 23.0105 27.3832 23.3303C27.2508 23.6501 27.2161 24.0019 27.2836 24.3414C27.3512 24.6809 27.5178 24.9927 27.7626 25.2374C28.0073 25.4822 28.3191 25.6489 28.6586 25.7164C28.9981 25.7839 29.3499 25.7492 29.6697 25.6168C29.9895 25.4843 30.2628 25.26 30.4551 24.9722C30.6474 24.6845 30.75 24.3461 30.75 24C30.75 23.7702 30.7047 23.5426 30.6168 23.3303C30.5288 23.118 30.3999 22.9251 30.2374 22.7626C30.0749 22.6001 29.882 22.4712 29.6697 22.3832C29.4574 22.2953 29.2298 22.25 29 22.25Z" fill="#1C2730"/>
</svg>
