<svg width="24" height="24" viewBox="0 0 24 24" fill="none" xmlns="http://www.w3.org/2000/svg">
<circle cx="12" cy="12" r="12" fill="#EFF4FD"/>
<mask id="mask0_794_1608" style="mask-type:alpha" maskUnits="userSpaceOnUse" x="0" y="0" width="24" height="24">
<circle cx="12" cy="12" r="12" fill="#D9D9D9"/>
</mask>
<g mask="url(#mask0_794_1608)">
<path d="M9.92126 6.8241L0.636841 24.3997H26.8715L17.6378 6.83209C16.0053 3.72627 11.5601 3.72167 9.92126 6.8241Z" fill="#3851EE"/>
<path d="M9.24506 8.10417L9.92126 6.8241C10.5358 5.66069 11.5451 4.9342 12.6526 4.64434C14.4985 4.16123 16.6175 4.89095 17.6378 6.83209L19.0391 9.49814L17.0983 8.2683C16.7124 8.02376 16.2102 8.06984 15.8752 8.38054L15.3996 8.82172C14.9936 9.19829 14.3596 9.17615 13.9809 8.77217L13.8729 8.6569C13.4683 8.22533 12.7805 8.23411 12.3871 8.67587L12.2539 8.82541C11.9112 9.21023 10.8718 9.274 10.4535 8.97315L9.24506 8.10417Z" fill="#A5B2FF"/>
<path d="M4.19011 11.0317L-2.87158 24.3996H17.0824L10.0593 11.0378C8.81764 8.67555 5.43663 8.67204 4.19011 11.0317Z" fill="#F3AF3D"/>
<path d="M3.67578 12.0054L4.1901 11.0317C4.65755 10.1469 5.42516 9.59429 6.26755 9.37382C7.67154 9.00637 9.28325 9.5614 10.0593 11.0378L11.1251 13.0656L9.64893 12.1302C9.3554 11.9442 8.97342 11.9792 8.71864 12.2156L8.35687 12.5511C8.04808 12.8375 7.56592 12.8207 7.27786 12.5134L7.19567 12.4258C6.88794 12.0975 6.36483 12.1042 6.06558 12.4402L5.96429 12.5539C5.70361 12.8466 4.91311 12.8951 4.5949 12.6663L3.67578 12.0054Z" fill="#FFD897"/>
<path d="M12.8591 19.3991C3.45674 18.3074 -2.29795 15.2467 -4 13.8528L-3.37221 4.89746C0.0290174 6.2717 0.621306 9.67248 0.492297 11.2011C5.20441 10.4538 6.73087 14.5522 6.90508 16.6949C8.63254 16.479 8.81763 16.7874 9.94357 17.9442C10.8443 18.8696 12.2626 19.2997 12.8591 19.3991Z" fill="white"/>
<path d="M12.3205 7.77789C21.6569 9.33566 28.0346 7.99026 30.0564 7.12285L31.9359 -1.65549C28.287 -1.27805 26.7751 1.82523 26.4753 3.32969C22.155 1.30533 19.5522 4.81996 18.7908 6.83031C17.1909 6.14393 16.9276 6.38901 15.5251 7.1883C14.4031 7.82774 12.9212 7.84779 12.3205 7.77789Z" fill="white"/>
</g>
</svg>
