<svg width="16" height="16" viewBox="0 0 16 16" fill="none" xmlns="http://www.w3.org/2000/svg">
<path d="M14.18 6.12C13.9867 5.81333 13.78 5.52666 13.5667 5.26C13.32 4.94666 12.8533 4.92 12.5733 5.2L10.5733 7.2C10.72 7.64 10.7467 8.14666 10.6133 8.67333C10.38 9.61333 9.62001 10.3733 8.68001 10.6067C8.15334 10.74 7.64667 10.7133 7.20667 10.5667C7.20667 10.5667 6.25334 11.52 5.56667 12.2067C5.23334 12.54 5.34001 13.1267 5.78667 13.3C6.50001 13.5733 7.24001 13.7133 8.00001 13.7133C9.18667 13.7133 10.34 13.3667 11.3933 12.72C12.4667 12.0533 13.4333 11.0733 14.2133 9.82666C14.8467 8.81999 14.8133 7.12666 14.18 6.12Z" fill="#1C2730"/>
<path d="M9.34672 6.65335L6.65338 9.34668C6.31338 9.00001 6.09338 8.52001 6.09338 8.00001C6.09338 6.95335 6.94672 6.09335 8.00005 6.09335C8.52005 6.09335 9.00005 6.31335 9.34672 6.65335Z" fill="#292D32"/>
<path d="M12.1667 3.83333L9.90671 6.09333C9.42004 5.6 8.74671 5.30667 8.00004 5.30667C6.50671 5.30667 5.30671 6.51333 5.30671 8C5.30671 8.74667 5.60671 9.42 6.09337 9.90667L3.84004 12.1667H3.83337C3.09337 11.5667 2.41337 10.8 1.83337 9.89333C1.16671 8.84667 1.16671 7.14667 1.83337 6.1C2.60671 4.88667 3.55337 3.93333 4.60671 3.28C5.66004 2.64 6.81337 2.28667 8.00004 2.28667C9.48671 2.28667 10.9267 2.83333 12.1667 3.83333Z" fill="#292D32"/>
<path d="M9.90672 7.99999C9.90672 9.04666 9.05339 9.90666 8.00005 9.90666C7.96005 9.90666 7.92672 9.90666 7.88672 9.89332L9.89339 7.88666C9.90672 7.92666 9.90672 7.95999 9.90672 7.99999Z" fill="#292D32"/>
<path d="M14.5133 1.48667C14.3133 1.28667 13.9867 1.28667 13.7867 1.48667L1.48667 13.7933C1.28667 13.9933 1.28667 14.32 1.48667 14.52C1.58667 14.6133 1.71334 14.6667 1.84667 14.6667C1.98 14.6667 2.10667 14.6133 2.20667 14.5133L14.5133 2.20667C14.72 2.00667 14.72 1.68667 14.5133 1.48667Z" fill="#292D32"/>
</svg>
