<svg width="16" height="16" viewBox="0 0 16 16" fill="none" xmlns="http://www.w3.org/2000/svg">
<path d="M8 11.5667C8.60015 11.5667 9.08666 11.0802 9.08666 10.48C9.08666 9.87986 8.60015 9.39334 8 9.39334C7.39985 9.39334 6.91333 9.87986 6.91333 10.48C6.91333 11.0802 7.39985 11.5667 8 11.5667Z" fill="#1C2730"/>
<path d="M12.1867 6.35334V5.52001C12.1867 3.72001 11.7534 1.33334 8.00004 1.33334C4.24671 1.33334 3.81337 3.72001 3.81337 5.52001V6.35334C1.94671 6.58668 1.33337 7.53334 1.33337 9.86001V11.1C1.33337 13.8333 2.16671 14.6667 4.90004 14.6667H11.1C13.8334 14.6667 14.6667 13.8333 14.6667 11.1V9.86001C14.6667 7.53334 14.0534 6.58668 12.1867 6.35334ZM8.00004 12.4933C6.88671 12.4933 5.98671 11.5867 5.98671 10.48C5.98671 9.36668 6.89337 8.46668 8.00004 8.46668C9.10671 8.46668 10.0134 9.37334 10.0134 10.48C10.0134 11.5933 9.11337 12.4933 8.00004 12.4933ZM4.90004 6.29334C4.84671 6.29334 4.80004 6.29334 4.74671 6.29334V5.52001C4.74671 3.56668 5.30004 2.26668 8.00004 2.26668C10.7 2.26668 11.2534 3.56668 11.2534 5.52001V6.30001C11.2 6.30001 11.1534 6.30001 11.1 6.30001H4.90004V6.29334Z" fill="#1C2730"/>
</svg>
