<svg width="16" height="16" viewBox="0 0 16 16" fill="none" xmlns="http://www.w3.org/2000/svg">
<path d="M14.1667 6.1C12.6267 3.68 10.3734 2.28667 8.00004 2.28667C6.81337 2.28667 5.66004 2.63333 4.60671 3.28C3.55337 3.93333 2.60671 4.88667 1.83337 6.1C1.16671 7.14667 1.16671 8.84667 1.83337 9.89333C3.37337 12.32 5.62671 13.7067 8.00004 13.7067C9.18671 13.7067 10.34 13.36 11.3934 12.7133C12.4467 12.06 13.3934 11.1067 14.1667 9.89333C14.8334 8.85333 14.8334 7.14667 14.1667 6.1ZM8.00004 10.6933C6.50671 10.6933 5.30671 9.48667 5.30671 8C5.30671 6.51333 6.50671 5.30667 8.00004 5.30667C9.49337 5.30667 10.6934 6.51333 10.6934 8C10.6934 9.48667 9.49337 10.6933 8.00004 10.6933Z" fill="#1C2730"/>
<path d="M7.99998 6.09334C6.95331 6.09334 6.09998 6.94667 6.09998 8C6.09998 9.04667 6.95331 9.9 7.99998 9.9C9.04664 9.9 9.90664 9.04667 9.90664 8C9.90664 6.95334 9.04664 6.09334 7.99998 6.09334Z" fill="#1C2730"/>
</svg>
