<svg width="17" height="17" viewBox="0 0 17 17" fill="none" xmlns="http://www.w3.org/2000/svg">
<path d="M8.49996 14.5C11.9978 14.5 14.8333 11.6644 14.8333 8.16665C14.8333 4.66884 11.9978 1.83331 8.49996 1.83331C5.00216 1.83331 2.16663 4.66884 2.16663 8.16665C2.16663 11.6644 5.00216 14.5 8.49996 14.5Z" fill="#4D73FF"/>
<path d="M15.0333 15.1667C14.9133 15.1667 14.7933 15.12 14.7067 15.0334L13.4667 13.7934C13.2867 13.6134 13.2867 13.32 13.4667 13.1334C13.6467 12.9534 13.94 12.9534 14.1267 13.1334L15.3667 14.3734C15.5467 14.5534 15.5467 14.8467 15.3667 15.0334C15.2733 15.12 15.1533 15.1667 15.0333 15.1667Z" fill="#4D73FF"/>
</svg>
