<svg width="18" height="16" viewBox="0 0 18 16" fill="none" xmlns="http://www.w3.org/2000/svg">
<path d="M16.837 7.63472L14.4981 9.88877C14.177 10.1978 13.9588 10.8158 14.0255 11.2582L14.3891 13.9C14.6254 15.5906 13.5771 16.3237 12.0623 15.536L9.49315 14.1909C9.06294 13.9667 8.36007 13.9788 7.94197 14.2272L5.69398 15.5421C3.91861 16.5782 2.85823 15.7966 3.33086 13.797L3.99132 11.0037C4.11251 10.4947 3.88831 9.79788 3.50658 9.4525L1.37977 7.53171C-0.14111 6.15625 0.28304 4.90804 2.33108 4.7505L4.92445 4.5566C5.40919 4.52024 5.99694 4.13851 6.22114 3.7083L7.5663 1.12704C8.36006 -0.381717 9.63857 -0.375657 10.4081 1.14522L11.6078 3.52046C11.8139 3.92037 12.335 4.30817 12.7773 4.37482L15.9887 4.89592C17.7217 5.18677 18.1034 6.4168 16.837 7.63472Z" fill="#BFBFBF"/>
</svg>
