<svg width="16" height="17" viewBox="0 0 16 17" fill="none" xmlns="http://www.w3.org/2000/svg">
<path fill-rule="evenodd" clip-rule="evenodd" d="M1 3.5C1 2.96957 1.21071 2.46086 1.58579 2.08579C1.96086 1.71071 2.46957 1.5 3 1.5H3.91467C4.488 1.5 4.988 1.89067 5.12733 2.44667L5.864 5.39533C5.9237 5.634 5.91164 5.88497 5.82934 6.11682C5.74704 6.34866 5.59815 6.55106 5.40133 6.69867L4.53933 7.34533C4.44933 7.41267 4.43 7.51133 4.45533 7.58C4.83159 8.60323 5.42573 9.53247 6.19663 10.3034C6.96753 11.0743 7.89677 11.6684 8.92 12.0447C8.98867 12.07 9.08667 12.0507 9.15467 11.9607L9.80133 11.0987C9.94894 10.9018 10.1513 10.753 10.3832 10.6707C10.615 10.5884 10.866 10.5763 11.1047 10.636L14.0533 11.3727C14.6093 11.512 15 12.012 15 12.586V13.5C15 14.0304 14.7893 14.5391 14.4142 14.9142C14.0391 15.2893 13.5304 15.5 13 15.5H11.5C5.70133 15.5 1 10.7987 1 5V3.5Z" fill="#1C2730"/>
</svg>
