<svg width="24" height="24" viewBox="0 0 24 24" fill="none" xmlns="http://www.w3.org/2000/svg">
<circle cx="12" cy="12" r="12" fill="#EFF4FD"/>
<mask id="mask0_794_1621" style="mask-type:alpha" maskUnits="userSpaceOnUse" x="0" y="0" width="24" height="24">
<circle cx="12" cy="12" r="12" fill="#D9D9D9"/>
</mask>
<g mask="url(#mask0_794_1621)">
<path d="M12.8591 19.3991C3.45674 18.3074 -2.29795 15.2467 -4 13.8528L-3.37221 4.89746C0.0290174 6.2717 0.621306 9.67248 0.492297 11.2011C5.20441 10.4538 6.73087 14.5522 6.90508 16.6949C8.63254 16.479 8.81763 16.7874 9.94357 17.9442C10.8443 18.8696 12.2626 19.2997 12.8591 19.3991Z" fill="white"/>
<path fill-rule="evenodd" clip-rule="evenodd" d="M14.9644 5.71746C14.9644 5.58393 14.9352 5.45201 14.8787 5.33098C14.8223 5.20996 14.7401 5.10276 14.6378 5.01693C14.5355 4.93111 14.4156 4.86873 14.2866 4.8342C14.1577 4.79967 14.0227 4.79381 13.8912 4.81705C10.7612 5.37009 7.7967 5.40483 5.02325 4.82253C4.82215 4.78048 4.61275 4.8074 4.42883 4.89895C4.2449 4.9905 4.09718 5.14133 4.00949 5.32713L-4.18106 22.6955C-4.24737 22.8347 -4.27728 22.9885 -4.268 23.1425C-4.25873 23.2965 -4.21057 23.4456 -4.12803 23.5759C-4.04548 23.7062 -3.93125 23.8134 -3.79601 23.8876C-3.66077 23.9617 -3.50894 24.0004 -3.3547 23.9999H14.0502C14.2927 23.9999 14.5252 23.9036 14.6966 23.7322C14.868 23.5608 14.9644 23.3283 14.9644 23.0858V5.71746Z" fill="#E1A303"/>
<path fill-rule="evenodd" clip-rule="evenodd" d="M14.9643 19.4293H-2.64081L-1.77879 17.6011H14.9643V19.4293Z" fill="#3851EE"/>
<path fill-rule="evenodd" clip-rule="evenodd" d="M14.9643 16.1293H-2.64081L-1.77879 14.3011H14.9643V16.1293Z" fill="#3851EE"/>
<path fill-rule="evenodd" clip-rule="evenodd" d="M22.2408 24C22.3948 23.9999 22.5464 23.9609 22.6813 23.8867C22.8163 23.8124 22.9303 23.7052 23.0127 23.575C23.0952 23.4449 23.1434 23.296 23.1529 23.1423C23.1624 22.9885 23.1329 22.8348 23.0671 22.6955L14.8766 5.32715C14.8028 5.17031 14.6859 5.0377 14.5396 4.94482C14.3933 4.85194 14.2235 4.80261 14.0502 4.80261C13.8769 4.80261 13.7071 4.85194 13.5608 4.94482C13.4145 5.0377 13.2976 5.17031 13.2238 5.32715L5.03329 22.6955C4.96699 22.8348 4.93708 22.9886 4.94635 23.1425C4.95563 23.2965 5.00379 23.4456 5.08633 23.5759C5.16887 23.7062 5.2831 23.8134 5.41834 23.8876C5.55358 23.9617 5.70542 24.0004 5.85966 24H22.2408Z" fill="#FFC93C"/>
<path fill-rule="evenodd" clip-rule="evenodd" d="M9.83063 24H20.0249L15.7551 14.9264C15.681 14.7696 15.5639 14.6371 15.4174 14.5444C15.271 14.4516 15.1012 14.4023 14.9278 14.4023C14.7544 14.4023 14.5846 14.4516 14.4381 14.5444C14.2917 14.6371 14.1746 14.7696 14.1005 14.9264L9.83063 24Z" fill="#2B2025"/>
<path d="M12.3205 7.77789C21.6569 9.33566 28.0346 7.99026 30.0564 7.12285L31.9359 -1.65549C28.287 -1.27805 26.7751 1.82523 26.4753 3.32969C22.155 1.30533 19.5522 4.81996 18.7908 6.83031C17.1909 6.14393 16.9276 6.38901 15.5251 7.1883C14.4031 7.82774 12.9212 7.84779 12.3205 7.77789Z" fill="white"/>
</g>
</svg>
