<svg width="24" height="24" viewBox="0 0 24 24" fill="none" xmlns="http://www.w3.org/2000/svg">
<circle cx="12" cy="12" r="12" fill="#EFF4FD"/>
<mask id="mask0_794_1587" style="mask-type:alpha" maskUnits="userSpaceOnUse" x="0" y="0" width="24" height="24">
<circle cx="12" cy="12" r="12" fill="#D9D9D9"/>
</mask>
<g mask="url(#mask0_794_1587)">
<path d="M12.8591 19.3986C3.45674 18.307 -2.29795 15.2462 -4 13.8523L-3.37221 4.89697C0.0290174 6.27121 0.621306 9.67199 0.492297 11.2006C5.20441 10.4533 6.73087 14.5518 6.90508 16.6944C8.63254 16.4785 8.81763 16.7869 9.94357 17.9437C10.8443 18.8692 12.2626 19.2993 12.8591 19.3986Z" fill="white"/>
<path d="M12.3203 7.77752C21.6568 9.33529 28.0345 7.9899 30.0562 7.12248L31.9358 -1.65585C28.2869 -1.27842 26.775 1.82486 26.4752 3.32932C22.1549 1.30496 19.5521 4.81959 18.7907 6.82995C17.1908 6.14357 16.9274 6.38864 15.5249 7.18793C14.4029 7.82737 12.921 7.84743 12.3203 7.77752Z" fill="white"/>
<path d="M14.2004 5.45609C14.2938 5.14146 14.1144 4.81073 13.7997 4.7174C13.4851 4.62407 13.1544 4.80348 13.061 5.1181L12.3851 7.39691L13.5245 7.7349L14.2004 5.45609Z" fill="#2B2025"/>
<path d="M12.3851 7.39691L10.0294 15.338L10.2608 16.6463L11.1688 15.676L13.5245 7.7349L12.3851 7.39691Z" fill="black"/>
<path d="M10.0294 15.338L7.71517 23.1396C7.69276 23.2152 7.70128 23.2965 7.73886 23.3658C7.77643 23.4351 7.83998 23.4866 7.91553 23.509L8.48523 23.678C8.56077 23.7004 8.64213 23.6919 8.7114 23.6543C8.78066 23.6167 8.83217 23.5532 8.85458 23.4776L11.1688 15.6761C10.9843 15.5652 10.8159 15.4297 10.6681 15.2732C10.4591 15.3237 10.2443 15.3455 10.0294 15.338Z" fill="#2B2025"/>
<path d="M1.87186 10.3113L1.81553 10.5012C1.62885 11.1305 1.98765 11.7919 2.61694 11.9786L5.05716 12.7025C5.68645 12.8891 6.34788 12.5304 6.53455 11.9011L8.18094 10.5299L4.68202 9.49203L1.87186 10.3113Z" fill="#CB9131"/>
<path d="M19.8262 14.8391L18.0748 16.564L19.2142 16.902C19.8435 17.0887 20.5049 16.7299 20.6916 16.1006L20.748 15.9107L19.8262 14.8391Z" fill="#142279"/>
<path d="M19.5522 15.7626L19.8261 14.839L18.8391 13.6915L15.3401 12.6536L15.9726 14.7007C15.7859 15.33 16.1447 15.9914 16.774 16.1781L18.0748 16.564C18.7041 16.7507 19.3655 16.3919 19.5522 15.7626Z" fill="#293DBC"/>
<path d="M10.6211 11.2538L11.2535 13.3009C11.0668 13.9302 11.4256 14.5916 12.0549 14.7783L14.4951 15.5021C15.1244 15.6888 15.7859 15.33 15.9725 14.7007L16.4795 12.9916L10.6211 11.2538Z" fill="#CB9131"/>
<path d="M7.0415 10.192L6.53452 11.9011C6.34785 12.5304 6.70664 13.1918 7.33593 13.3785L9.77615 14.1023C10.4054 14.289 11.0669 13.9302 11.2535 13.3009L11.7605 11.5918L7.0415 10.192Z" fill="#293DBC"/>
<path d="M1.87186 10.3113L6.59089 11.7112L13.2928 6.42651C8.93488 5.13379 4.40051 6.82466 1.87186 10.3113Z" fill="#F3AF3D"/>
<path d="M13.2928 6.42651L19.6086 15.5727L20.748 15.9107C20.5296 11.6092 17.6507 7.71923 13.2928 6.42651Z" fill="#2337B2"/>
<path d="M13.2928 6.42651L16.0289 14.5108L19.6086 15.5727C19.556 11.3204 17.1246 7.56317 13.2928 6.42651Z" fill="#3851EE"/>
<path d="M16.0289 14.5108C16.4972 10.413 15.4717 7.07284 13.2927 6.42648L10.7821 9.31808L11.3098 13.111L16.0289 14.5108Z" fill="#F3AF3D"/>
<path d="M6.59086 11.7112L11.3099 13.111L13.2928 6.42651C11.1138 5.78015 8.43275 8.02079 6.59086 11.7112Z" fill="#3851EE"/>
</g>
</svg>
