<svg width="16" height="17" viewBox="0 0 16 17" fill="none" xmlns="http://www.w3.org/2000/svg">
<path fill-rule="evenodd" clip-rule="evenodd" d="M5.00002 4.5C5.00002 3.70435 5.31609 2.94129 5.8787 2.37868C6.44131 1.81607 7.20437 1.5 8.00002 1.5C8.79567 1.5 9.55873 1.81607 10.1213 2.37868C10.684 2.94129 11 3.70435 11 4.5C11 5.29565 10.684 6.05871 10.1213 6.62132C9.55873 7.18393 8.79567 7.5 8.00002 7.5C7.20437 7.5 6.44131 7.18393 5.8787 6.62132C5.31609 6.05871 5.00002 5.29565 5.00002 4.5ZM2.50069 13.9033C2.52317 12.4596 3.11245 11.0827 4.14133 10.0697C5.17021 9.05674 6.55616 8.48897 8.00002 8.48897C9.44388 8.48897 10.8298 9.05674 11.8587 10.0697C12.8876 11.0827 13.4769 12.4596 13.4994 13.9033C13.5011 14.0005 13.4745 14.0961 13.4227 14.1784C13.371 14.2607 13.2964 14.3261 13.208 14.3667C11.5741 15.1158 9.79746 15.5024 8.00002 15.5C6.14269 15.5 4.37802 15.0947 2.79202 14.3667C2.70368 14.3261 2.62907 14.2607 2.57733 14.1784C2.52559 14.0961 2.49896 14.0005 2.50069 13.9033Z" fill="#1C2730"/>
</svg>
