<svg width="35" height="25" viewBox="0 0 35 25" fill="none" xmlns="http://www.w3.org/2000/svg">
<rect width="35" height="25" rx="4" fill="#0060AF"/>
<path fill-rule="evenodd" clip-rule="evenodd" d="M7.19864 14.8956C7.19864 14.5601 7.2025 13.6633 7.19373 13.5528C7.20138 12.2183 6.17208 11.2769 5.52181 11.3503C5.07185 11.3871 4.69467 11.5601 4.49227 12.0576C4.30452 12.5213 4.47238 13.1381 5.09632 13.2828C5.76342 13.4383 6.15308 13.5676 6.43502 13.75C6.78048 13.9734 7.0625 14.4001 7.06999 14.8962" fill="white"/>
<path fill-rule="evenodd" clip-rule="evenodd" d="M6.91978 14.8961C6.92195 14.4661 6.6673 14.0858 6.33448 13.8814C6.03926 13.7008 5.64291 13.5821 5.00351 13.4292C4.80587 13.3816 4.59912 13.2757 4.53512 13.1407C4.36581 13.3016 4.33505 13.6631 4.36484 13.8745C4.39946 14.1189 4.70257 14.5219 5.15898 14.5377C5.4377 14.5483 5.79008 14.4812 5.95907 14.4473C6.25059 14.388 6.71182 14.5601 6.78525 14.8956" fill="white"/>
<path fill-rule="evenodd" clip-rule="evenodd" d="M7.43437 9.27042C6.66044 9.27042 5.99206 9.7515 5.99439 10.584C5.99681 11.284 6.59402 11.6588 6.8072 11.9264C7.12924 12.3298 7.30354 12.8073 7.32157 13.5378C7.33574 14.1192 7.33502 14.6933 7.33816 14.8968H7.50892C7.50602 14.6839 7.49829 14.0744 7.50706 13.5198C7.51866 12.789 7.69924 12.3298 8.02143 11.9264C8.23647 11.6588 8.83312 11.284 8.83441 10.584C8.83739 9.7515 8.16925 9.27042 7.39612 9.27042" fill="white"/>
<path fill-rule="evenodd" clip-rule="evenodd" d="M7.63076 14.8956C7.63076 14.5601 7.62674 13.6633 7.63535 13.5528C7.62778 12.2183 8.65644 11.2769 9.30727 11.3503C9.75723 11.3871 10.1339 11.5601 10.337 12.0576C10.5245 12.5213 10.3557 13.1381 9.7326 13.2828C9.06502 13.4383 8.67592 13.5676 8.39326 13.75C8.0482 13.9734 7.7859 14.4001 7.77785 14.8962" fill="white"/>
<path fill-rule="evenodd" clip-rule="evenodd" d="M7.90938 14.8961C7.90696 14.4661 8.16153 14.0858 8.49339 13.8814C8.7899 13.7008 9.18665 13.5821 9.82548 13.4292C10.0235 13.3816 10.23 13.2757 10.2929 13.1407C10.463 13.3016 10.4938 13.6631 10.4639 13.8745C10.4287 14.1189 10.1263 14.5219 9.67066 14.5377C9.3921 14.5483 9.03779 14.4812 8.86952 14.4473C8.57913 14.388 8.11661 14.5601 8.04286 14.8956" fill="white"/>
<path fill-rule="evenodd" clip-rule="evenodd" d="M8.14808 16.2846L8.04913 15.6034L8.28816 15.5693C8.34629 15.5619 8.41714 15.5714 8.44548 15.6057C8.47679 15.6416 8.48637 15.6713 8.49241 15.7183C8.50151 15.7766 8.48364 15.8439 8.41408 15.8774V15.8795C8.49169 15.8795 8.53862 15.9321 8.55231 16.0209C8.55424 16.0397 8.5602 16.0849 8.55424 16.1227C8.53846 16.2126 8.48162 16.2416 8.3855 16.2543L8.14808 16.2846ZM8.30194 16.1627C8.33028 16.1589 8.35902 16.1574 8.38149 16.1439C8.41594 16.1227 8.4128 16.0775 8.40797 16.0438C8.39606 15.97 8.37561 15.9418 8.29244 15.9534L8.24011 15.961L8.27328 16.1665L8.30194 16.1627ZM8.25195 15.8479C8.28359 15.8431 8.32642 15.8395 8.34429 15.8112C8.35371 15.7923 8.36563 15.7773 8.35774 15.7352C8.34799 15.6854 8.33052 15.6545 8.2633 15.6665L8.20074 15.6759L8.22546 15.8505L8.25195 15.8479Z" fill="white"/>
<path fill-rule="evenodd" clip-rule="evenodd" d="M9.18352 15.875C9.18537 15.8876 9.18755 15.9017 9.18835 15.9144C9.20768 16.0386 9.18352 16.1415 9.03539 16.1698C8.81632 16.2095 8.77438 16.0813 8.7359 15.9017L8.71537 15.8045C8.68518 15.6328 8.67221 15.5027 8.88572 15.4626C9.00608 15.4419 9.08562 15.4871 9.11871 15.6C9.12387 15.6168 9.13031 15.6335 9.13272 15.6505L9.00174 15.676C8.9866 15.6335 8.96655 15.5576 8.90762 15.564C8.80183 15.5761 8.83677 15.7001 8.84764 15.752L8.88701 15.9385C8.89885 15.9949 8.92235 16.0849 9.01389 16.0676C9.0882 16.0535 9.05576 15.9444 9.04915 15.8996" fill="white"/>
<path fill-rule="evenodd" clip-rule="evenodd" d="M9.39376 16.0811L9.34851 15.3762L9.52442 15.3256L9.89339 15.9386L9.75484 15.9777L9.6674 15.8219L9.51355 15.8655L9.53344 16.0426L9.39376 16.0811ZM9.50066 15.7516L9.61184 15.7213L9.46419 15.4361L9.50066 15.7516Z" fill="white"/>
<path fill-rule="evenodd" clip-rule="evenodd" d="M5.04696 15.5481C5.10203 15.382 5.1513 15.2596 5.36151 15.3139C5.47398 15.3436 5.5437 15.3903 5.5404 15.5134C5.53984 15.5408 5.53026 15.5688 5.52398 15.5958L5.39315 15.5618C5.4103 15.4938 5.42117 15.4398 5.33229 15.414C5.22956 15.3874 5.20452 15.5049 5.19035 15.5556L5.13713 15.7403C5.12023 15.7952 5.09994 15.8859 5.19035 15.9094C5.26506 15.9283 5.31031 15.8592 5.33736 15.7583L5.2459 15.7353L5.27754 15.6285L5.49274 15.6937L5.39057 16.0498L5.29155 16.0245L5.31385 15.9492H5.31103C5.26538 16.0108 5.20983 16.0173 5.16113 16.0084C4.94593 15.9536 4.96839 15.821 5.01975 15.6439" fill="white"/>
<path fill-rule="evenodd" clip-rule="evenodd" d="M5.8479 15.8489L5.78309 16.1387L5.63721 16.109L5.79267 15.4324L6.04136 15.4853C6.18692 15.515 6.23088 15.576 6.21027 15.7019C6.19851 15.774 6.16075 15.8517 6.06857 15.8454L6.06761 15.8443C6.14554 15.87 6.15214 15.9071 6.13853 15.971C6.13266 15.9984 6.09216 16.1637 6.1201 16.1904L6.12106 16.2107L5.97011 16.1735C5.96383 16.1278 5.98525 16.0453 5.9937 15.9997C6.00215 15.9593 6.01576 15.9024 5.97228 15.881C5.93831 15.8639 5.92559 15.8647 5.88711 15.8564L5.8479 15.8489ZM5.87277 15.7441L5.97099 15.7691C6.03065 15.7773 6.06382 15.7482 6.07557 15.6802C6.0862 15.6178 6.07243 15.5936 6.0189 15.5815L5.91359 15.5613L5.87277 15.7441Z" fill="white"/>
<path fill-rule="evenodd" clip-rule="evenodd" d="M6.7836 15.5836L6.92787 15.5993L6.86572 16.075C6.83553 16.2258 6.7737 16.2917 6.59771 16.2711C6.41866 16.2497 6.37615 16.1729 6.38694 16.0209L6.44957 15.5457L6.59497 15.5613L6.53258 16.0259C6.52589 16.0764 6.51358 16.1512 6.60874 16.1603C6.69319 16.1663 6.71235 16.1135 6.72193 16.0479" fill="white"/>
<path fill-rule="evenodd" clip-rule="evenodd" d="M7.08691 16.2971L7.13039 15.617L7.4075 15.6283C7.53857 15.6344 7.57278 15.7352 7.56876 15.8314C7.56489 15.89 7.54557 15.9553 7.49147 15.9907C7.44711 16.0209 7.39003 16.028 7.33721 16.0256L7.24688 16.0209L7.22885 16.3059L7.08691 16.2971ZM7.2509 15.9172L7.32432 15.921C7.38398 15.9231 7.42351 15.9009 7.42866 15.8183C7.43164 15.7391 7.39976 15.7255 7.32247 15.7224L7.26435 15.7205L7.2509 15.9172Z" fill="white"/>
<path fill-rule="evenodd" clip-rule="evenodd" d="M26.6369 9.9278L25.5353 11.8128C25.1194 11.4945 24.6117 11.2603 23.9639 11.2603C22.4308 11.2603 21.808 12.3375 21.808 13.0963C21.808 13.6597 22.1992 14.4907 23.5634 14.4907C24.136 14.4907 24.95 14.1153 25.1842 13.9444L24.0947 16.1313C23.5754 16.229 23.4047 16.2895 22.9651 16.3023C20.5234 16.371 19.5369 14.9571 19.5375 13.5124C19.5392 11.6024 21.3405 9.2796 24.3268 9.2796C24.5097 9.2796 24.7336 9.33933 24.9249 9.40543L25.1184 9.17221" fill="white"/>
<path fill-rule="evenodd" clip-rule="evenodd" d="M31.1827 9.23138L31.4946 16.0823H29.1729L29.1717 14.9074H27.5885L27.0675 16.0823H24.5495L27.182 11.1902L26.5884 11.1865L27.7161 9.23138H31.1827ZM29.1565 11.3272L28.2615 13.32H29.1836L29.1565 11.3272Z" fill="white"/>
<path fill-rule="evenodd" clip-rule="evenodd" d="M18.0718 9.23137C19.2216 9.23744 19.8713 9.82576 19.8713 10.6755C19.8713 11.459 19.1861 12.1525 18.4339 12.5111C19.2083 12.7795 19.2753 13.4383 19.2753 13.9042C19.2753 15.0303 18.0768 16.0823 16.5189 16.0823H13.1212L14.4465 11.2583L13.9021 11.2554L15.015 9.23137C15.015 9.23137 17.1369 9.2253 18.0718 9.23137ZM16.9438 12.0091C17.1816 12.0091 17.6016 11.9523 17.7066 11.5184C17.8216 11.0474 17.4275 11.0347 17.2385 11.0347L16.563 11.032L16.3275 12.0091H16.9438ZM15.9888 13.2197L15.6778 14.3457H16.4732C16.7861 14.3457 17.2126 14.1992 17.3171 13.8328C17.4203 13.4654 17.1221 13.2197 16.8104 13.2197H15.9888Z" fill="white"/>
<path fill-rule="evenodd" clip-rule="evenodd" d="M7.46494 16.9241C6.28847 16.9241 5.07955 16.651 3.87217 16.1108L3.84254 16.097L3.82837 16.0686C3.28655 14.9904 2.99994 13.8113 2.99994 12.6576C2.99994 11.5055 3.27479 10.3768 3.81694 9.30008L3.83191 9.27147L3.8621 9.2572C4.979 8.75843 6.18043 8.50586 7.43435 8.50586C8.60228 8.50586 9.84976 8.78704 11.0411 9.32057L11.0716 9.3334L11.0858 9.36254C11.6379 10.4606 11.9291 11.6395 11.9291 12.7741C11.9291 13.9043 11.6495 15.0341 11.0967 16.1314L11.0822 16.1602L11.0514 16.1735C9.95152 16.6643 8.71129 16.9241 7.46494 16.9241ZM3.98392 15.9629C5.15677 16.4831 6.32664 16.7457 7.46495 16.7457C8.67193 16.7457 9.87223 16.497 10.9408 16.0256C11.4716 14.9622 11.7407 13.8679 11.7407 12.7742C11.7407 11.6759 11.4599 10.5337 10.9287 9.46789C9.77248 8.95553 8.56502 8.68384 7.43436 8.68384C6.22045 8.68384 5.05686 8.92654 3.97378 9.40543C3.45386 10.449 3.18922 11.5425 3.18922 12.6576C3.18922 13.7747 3.46416 14.9174 3.98392 15.9629Z" fill="white"/>
</svg>
