<svg width="35" height="25" viewBox="0 0 35 25" fill="none" xmlns="http://www.w3.org/2000/svg">
<rect width="35" height="25" rx="4" fill="#003D79"/>
<path fill-rule="evenodd" clip-rule="evenodd" d="M2.53164 13.2405C2.53164 12.7922 2.52375 12.4159 2.50006 12.0805H3.32175L3.36027 12.6568H3.38332C3.56956 12.3523 3.91014 11.9921 4.54543 11.9921C5.0413 11.9921 5.42861 12.2808 5.59101 12.7128H5.60696C5.73888 12.4968 5.8933 12.3368 6.07132 12.2244C6.28069 12.0726 6.52093 11.9921 6.8308 11.9921C7.45811 11.9921 8.09293 12.4321 8.09293 13.6806V15.9768H7.16348V13.8248C7.16348 13.1768 6.94693 12.7922 6.49014 12.7922C6.16425 12.7922 5.92385 13.0327 5.82382 13.3129C5.8003 13.4086 5.77709 13.5287 5.77709 13.64V15.9768H4.84732V13.7204C4.84732 13.1768 4.63851 12.7922 4.19688 12.7922C3.84051 12.7922 3.60067 13.0807 3.51525 13.3522C3.47625 13.4488 3.46061 13.5605 3.46061 13.6723V15.9768H2.53164V13.2405Z" fill="white"/>
<path fill-rule="evenodd" clip-rule="evenodd" d="M11.7143 15.0409C11.7143 15.3928 11.7297 15.7362 11.7685 15.977H10.9084L10.8466 15.545H10.8231C10.5908 15.8494 10.1958 16.065 9.7078 16.065C8.94849 16.065 8.52264 15.4974 8.52264 14.905C8.52264 13.9205 9.36667 13.4248 10.7611 13.4327V13.3685C10.7611 13.1123 10.6603 12.6885 9.99422 12.6885C9.62222 12.6885 9.23475 12.8087 8.97928 12.9764L8.79312 12.3368C9.07251 12.1604 9.56096 11.9922 10.1569 11.9922C11.3659 11.9922 11.7143 12.7848 11.7143 13.6326V15.0409ZM10.7843 14.0729C10.1105 14.0567 9.46772 14.2087 9.46772 14.8009C9.46772 15.1846 9.7078 15.361 10.01 15.361C10.3891 15.361 10.6684 15.1048 10.7534 14.8249C10.7764 14.7529 10.7843 14.6726 10.7843 14.6088V14.0729Z" fill="white"/>
<path fill-rule="evenodd" clip-rule="evenodd" d="M12.373 13.2405C12.373 12.7922 12.3644 12.4159 12.3419 12.0805H13.1778L13.2245 12.6645H13.2474C13.4103 12.3608 13.8208 11.9921 14.4481 11.9921C15.1068 11.9921 15.7884 12.4321 15.7884 13.6646V15.9768H14.8357V13.7769C14.8357 13.2164 14.6343 12.7922 14.1153 12.7922C13.7357 12.7922 13.4724 13.0723 13.3714 13.3685C13.3409 13.4567 13.3329 13.577 13.3329 13.6882V15.9768H12.373V13.2405Z" fill="white"/>
<path fill-rule="evenodd" clip-rule="evenodd" d="M19.9192 10.5149V14.8804C19.9192 15.2804 19.9345 15.7133 19.95 15.977H19.0979L19.0597 15.361H19.044C18.8192 15.7933 18.3615 16.0651 17.8121 16.0651C16.9139 16.0651 16.201 15.2731 16.201 14.0729C16.1931 12.7686 16.9832 11.9922 17.8894 11.9922C18.4083 11.9922 18.7804 12.2166 18.9506 12.5048H18.9663V10.5149H19.9192ZM18.9663 13.7042C18.9663 13.625 18.9583 13.5286 18.9434 13.4488C18.858 13.0647 18.5557 12.7525 18.1219 12.7525C17.51 12.7525 17.1691 13.3129 17.1691 14.041C17.1691 14.7529 17.51 15.2731 18.1142 15.2731C18.5014 15.2731 18.8424 15.0011 18.9352 14.5772C18.9583 14.4888 18.9663 14.3929 18.9663 14.2885V13.7042Z" fill="white"/>
<path fill-rule="evenodd" clip-rule="evenodd" d="M20.5925 15.9768H21.554V12.0807H20.5925V15.9768Z" fill="white"/>
<path fill-rule="evenodd" clip-rule="evenodd" d="M22.2274 13.3365C22.2274 12.8086 22.2193 12.4321 22.1962 12.0803H23.0252L23.0555 12.8242H23.0876C23.2732 12.2721 23.7149 12.0803 24.1175 12.0803C24.2103 12.0803 24.2644 12.064 24.3421 12.0803V12.9447C24.2644 12.9288 24.1794 12.9128 24.0632 12.9128C23.6062 12.9128 23.2961 13.2165 23.211 13.6563C23.196 13.7444 23.1803 13.8488 23.1803 13.9614V15.9769H22.2274V13.3365Z" fill="white"/>
<path fill-rule="evenodd" clip-rule="evenodd" d="M24.7836 15.9768H25.7437V12.0807H24.7836V15.9768Z" fill="white"/>
<path fill-rule="evenodd" clip-rule="evenodd" d="M24.5565 7.36982C23.9798 7.71476 22.6196 8.5206 22.1118 8.82069C21.8023 8.98354 21.0855 9.05465 20.6801 8.49002C20.6729 8.47983 20.1409 7.79329 20.1192 7.76744C20.104 7.74918 19.7601 7.22231 18.9938 7.20583C18.8806 7.20306 18.3177 7.19996 17.7685 7.5224C17.0385 7.9532 15.3406 8.95581 15.3406 8.95581C15.3401 8.95581 15.3401 8.95671 15.3393 8.95671C14.6414 9.36917 14.0976 9.6903 14.0976 9.6903L14.7401 10.5054C15.0406 10.8908 15.7184 11.189 16.3061 10.8405C16.3061 10.8405 18.4779 9.54148 18.4859 9.53773C19.4251 9.00564 20.1499 9.00564 20.6309 9.20363C21.0626 9.39209 21.4383 9.86163 21.4383 9.86163C21.4383 9.86163 21.9292 10.49 22.0158 10.5999C22.2951 10.9551 22.7574 10.8156 22.7574 10.8156C22.7574 10.8156 22.9287 10.7955 23.187 10.6371C23.187 10.6371 25.2906 9.37724 25.2919 9.37684C25.9599 8.97204 26.5725 8.89645 26.8856 8.92621C27.8663 9.01828 28.171 9.72594 28.5962 10.2196C28.8466 10.51 29.0726 10.6749 29.4181 10.6666C29.6452 10.6616 29.9017 10.5194 29.9395 10.4937L32.4585 8.9921C32.4585 8.9921 32.2001 8.59 31.6707 7.96438C31.197 7.40619 30.6937 7.65874 30.2925 7.86399C30.124 7.95011 29.5132 8.36974 28.9082 8.66249C28.4771 8.87101 27.8578 8.8083 27.5184 8.37512C27.4981 8.34878 26.949 7.66217 26.8913 7.57768C26.6697 7.29097 26.2373 7.03418 25.6832 7.03418C25.3462 7.03418 24.9639 7.1291 24.5565 7.36982Z" fill="url(#paint0_linear_794_2928)"/>
<defs>
<linearGradient id="paint0_linear_794_2928" x1="14.0976" y1="10.9949" x2="32.4585" y2="10.9949" gradientUnits="userSpaceOnUse">
<stop stop-color="#FFCA06"/>
<stop offset="0.330844" stop-color="#FBAA18"/>
<stop offset="0.694742" stop-color="#FFC907"/>
<stop offset="1" stop-color="#FAA619"/>
</linearGradient>
</defs>
</svg>
